# xmcd CD database file
# Copyright (C) 1996 Ti Kan
#
# Track frame offsets:
# 	150
# 	14647
# 	37112
# 	49250
# 	61375
# 	72225
# 	87450
# 	104325
# 	118950
# 	133400
# 	150050
# 	169812
# 	184287
#
# Disc length: 2728 seconds
#
# Revision: 1
# Processed by: cddbd v1.4b41PL1 Copyright (c) Steve Scherf et al.
# Submitted via: DiscPlay 3.4.1
#
DISCID=bf0aa60d
DTITLE=Ecuador Inkas - Traditionelle Musik aus den Anden
DYEAR=1900
DGENRE=
TTITLE0=Sabado Chishi
TTITLE1=A Las Fiestas
TTITLE2=Viuda Huarmi
TTITLE3=La Culpable
TTITLE4=LLacta Pura
TTITLE5=Taquirikushunchi
TTITLE6=Paisaje De La Puna
TTITLE7=Runa Shungo
TTITLE8=Yanagu
TTITLE9=Cacharpaya Del Pasiri
TTITLE10=Perdon Huanguitaiticu
TTITLE11=Piedrecita
TTITLE12=Quien Te Ha Dicho
EXTD=
EXTT0=
EXTT1=
EXTT2=
EXTT3=
EXTT4=
EXTT5=
EXTT6=
EXTT7=
EXTT8=
EXTT9=
EXTT10=
EXTT11=
EXTT12=
PLAYORDER=
